<svg data-v-0dd9719b="" version="1.0" xmlns="http://www.w3.org/2000/svg" xmlns:xlink="http://www.w3.org/1999/xlink" width="100%" height="100%" viewBox="0 0 340.000000 250.000000" preserveAspectRatio="xMidYMid meet" color-interpolation-filters="sRGB" style="margin: auto;"> <rect data-v-0dd9719b="" x="0" y="0" width="100%" height="100%" fill="#fff" fill-opacity="1" class="background"></rect> <rect data-v-0dd9719b="" x="0" y="0" width="100%" height="100%" fill="url(#watermark)" fill-opacity="1" class="watermarklayer"></rect> <g data-v-0dd9719b="" fill="#ef7f06" class="icon-text-wrapper icon-svg-group iconsvg" transform="translate(47.94000244140625,95.00090026855469)"><g class="iconsvg-imagesvg" transform="translate(0,0)"><g><rect fill="#ef7f06" fill-opacity="0" stroke-width="2" x="0" y="0" width="60" height="59.99820005399838" class="image-rect"></rect> <svg x="0" y="0" width="60" height="59.99820005399838" filtersec="colorsb2518390087" class="image-svg-svg primary" style="overflow: visible;"><svg version="1.1" id="图层_1" xmlns="http://www.w3.org/2000/svg" xmlns:xlink="http://www.w3.org/1999/xlink" x="0px" y="0px" viewBox="-0.2199999988079071 0 887.3299560546875 887.300048828125" enable-background="new 0 0 887 887" xml:space="preserve">
<path fill="#EF7F06" d="M820.46,209.89c23.2,45.12,36.41,96.31,36.41,150.56c0,182.38-147.81,330.2-330.24,330.23
	c-182.42,0-330.21-147.78-330.23-330.23c0-182.36,147.84-330.17,330.19-330.17c54.32,0,105.47,13.13,150.65,36.35
	C609.34,24.42,529.24,0,443.48,0C198.42,0-0.22,198.63-0.22,443.67c0,245,198.64,443.63,443.64,443.63
	c245.02-0.03,443.69-198.6,443.69-443.7C887.11,357.85,862.71,277.78,820.46,209.89z M337.59,327.74
	c0,44.89,12.72,86.69,34.82,122.17c-12.15-23.58-19.03-50.34-18.99-78.73c-0.03-95.26,77.25-172.61,172.6-172.61
	c95.32,0,172.54,77.28,172.61,172.58c0,95.38-77.29,172.68-172.61,172.64c-28.39,0-55.18-6.85-78.76-18.98
	c35.53,22.04,77.35,34.79,122.2,34.79c128.07,0,231.93-103.79,231.93-231.86c0-128.1-103.9-231.94-231.93-231.94
	C441.38,95.8,337.56,199.64,337.59,327.74z M579.54,408.34c0-44.5-36.1-80.6-80.68-80.6c-44.5,0-80.57,36.07-80.57,80.6
	c-0.03,44.59,36.07,80.65,80.65,80.65C543.47,489.03,579.54,452.96,579.54,408.34z"></path>
</svg></svg> <!----></g></g> <g transform="translate(67.00000381469727,9.989099502563477)"><g data-gra="path-name" fill-rule="" class="tp-name iconsvg-namesvg"><g transform="scale(1)"><g><path d="M19.74-40.02L34.08-40.02 34.08-32.88 22.98-32.88Q18.66-32.88 16.68-32.28 14.7-31.68 13.38-29.94L13.38-29.94Q12.48-28.74 12.15-27.54 11.82-26.34 11.58-23.46L11.58-23.46 34.08-23.46 34.08-16.32 11.58-16.32Q12.06-11.16 14.64-9.15 17.22-7.14 23.4-7.14L23.4-7.14 34.08-7.14 34.08 0 22.98 0Q18.48 0 15.06-0.54L15.06-0.54Q9.66-1.44 6.48-5.28L6.48-5.28Q1.92-10.8 1.92-20.22L1.92-20.22Q1.92-30.66 8.34-36.48L8.34-36.48Q10.56-38.46 13.05-39.24 15.54-40.02 19.74-40.02L19.74-40.02ZM36.96 0L50.58-20.22 37.44-40.02 47.88-40.02 55.74-26.82 64.26-40.02 74.58-40.02 61.02-20.22 74.58 0 64.56 0 55.74-13.74 47.1 0 36.96 0ZM97.2-7.14L109.44-7.14 109.44 0 95.46 0Q91.5 0 89.4-0.42L89.4-0.42Q82.02-1.86 78.9-8.64L78.9-8.64Q76.86-13.2 76.86-19.92L76.86-19.92Q76.86-27.96 79.98-33L79.98-33Q82.26-36.66 86.07-38.34 89.88-40.02 95.88-40.02L95.88-40.02 109.44-40.02 109.44-32.88 96.84-32.88Q91.14-32.88 88.5-29.82L88.5-29.82Q86.28-27.3 86.28-20.7L86.28-20.7Q86.28-11.82 89.7-9.06L89.7-9.06Q92.1-7.14 97.2-7.14L97.2-7.14ZM131.04-40.02L145.38-40.02 145.38-32.88 134.28-32.88Q129.96-32.88 127.98-32.28 126-31.68 124.68-29.94L124.68-29.94Q123.78-28.74 123.45-27.54 123.12-26.34 122.88-23.46L122.88-23.46 145.38-23.46 145.38-16.32 122.88-16.32Q123.36-11.16 125.94-9.15 128.52-7.14 134.7-7.14L134.7-7.14 145.38-7.14 145.38 0 134.28 0Q129.78 0 126.36-0.54L126.36-0.54Q120.96-1.44 117.78-5.28L117.78-5.28Q113.22-10.8 113.22-20.22L113.22-20.22Q113.22-30.66 119.64-36.48L119.64-36.48Q121.86-38.46 124.35-39.24 126.84-40.02 131.04-40.02L131.04-40.02ZM151.62-17.52L151.62-40.02 160.08-40.02 160.08-17.52Q160.26-13.26 160.44-11.88L160.44-11.88Q160.86-9.12 163.08-8.13 165.3-7.14 170.88-7.14L170.88-7.14 179.04-7.14 179.04 0 169.98 0Q163.56 0 160.68-0.72L160.68-0.72Q154.08-2.64 152.28-9.12L152.28-9.12Q151.62-11.64 151.62-17.52L151.62-17.52Z" transform="translate(-1.9200000762939453, 40.02000045776367)"></path></g> <!----> <!----> <!----> <!----> <!----> <!----> <!----></g></g> <!----></g></g><defs v-gra="od"></defs></svg>